<?xml version="1.0" standalone="no"?>
<svg viewBox="0 0 200 200" xmlns="http://www.w3.org/2000/svg">
  <path fill="#E3647D" d="M43.5,-75.8C56.6,-67.8,67.5,-56.5,75.5,-43.3C83.6,-30.2,88.9,-15.1,88.5,-0.2C88.1,14.6,82,29.2,74.3,43.1C66.6,57,57.3,70.1,44.7,77.5C32,84.9,16,86.6,-0.3,87C-16.5,87.4,-33,86.6,-45.9,79.4C-58.8,72.1,-68.1,58.4,-76.5,44.1C-84.8,29.8,-92.3,14.9,-92.4,0C-92.5,-15,-85.2,-30,-75.9,-42.7C-66.7,-55.5,-55.4,-66,-42.5,-74C-29.5,-82,-14.7,-87.5,0.2,-87.9C15.2,-88.3,30.5,-83.7,43.5,-75.8Z" transform="translate(100 100)" />
</svg>
