<?xml version="1.0" standalone="no"?>
<svg viewBox="0 0 200 200" xmlns="http://www.w3.org/2000/svg">
  <path fill="#E3647D" d="M39.2,-64.2C52.7,-60.1,66.8,-53.4,69.8,-42.3C72.9,-31.1,64.8,-15.6,56.2,-4.9C47.7,5.7,38.6,11.4,35.4,22.3C32.3,33.2,35.1,49.4,30.2,55C25.2,60.5,12.6,55.5,0.6,54.5C-11.4,53.4,-22.8,56.3,-31.9,53.2C-41,50,-47.9,40.8,-50.8,30.9C-53.7,21.1,-52.6,10.5,-50.3,1.4C-47.9,-7.8,-44.3,-15.6,-38.8,-21C-33.3,-26.3,-25.9,-29.2,-19.1,-37.2C-12.4,-45.1,-6.2,-58.1,3.3,-63.9C12.9,-69.7,25.7,-68.3,39.2,-64.2Z" transform="translate(100 100)" />
</svg>
