<?xml version="1.0" standalone="no"?><svg xmlns="http://www.w3.org/2000/svg" viewBox="0 0 1440 320"><path fill="#e3647d" fill-opacity="1" d="M0,128L15,160C30,192,60,256,90,261.3C120,267,150,213,180,181.3C210,149,240,139,270,128C300,117,330,107,360,128C390,149,420,203,450,218.7C480,235,510,213,540,192C570,171,600,149,630,144C660,139,690,149,720,170.7C750,192,780,224,810,224C840,224,870,192,900,165.3C930,139,960,117,990,106.7C1020,96,1050,96,1080,128C1110,160,1140,224,1170,245.3C1200,267,1230,245,1260,197.3C1290,149,1320,75,1350,69.3C1380,64,1410,128,1425,160L1440,192L1440,320L1425,320C1410,320,1380,320,1350,320C1320,320,1290,320,1260,320C1230,320,1200,320,1170,320C1140,320,1110,320,1080,320C1050,320,1020,320,990,320C960,320,930,320,900,320C870,320,840,320,810,320C780,320,750,320,720,320C690,320,660,320,630,320C600,320,570,320,540,320C510,320,480,320,450,320C420,320,390,320,360,320C330,320,300,320,270,320C240,320,210,320,180,320C150,320,120,320,90,320C60,320,30,320,15,320L0,320Z"></path></svg>