<?xml version="1.0" standalone="no"?><svg xmlns="http://www.w3.org/2000/svg" viewBox="0 0 1440 320"><path fill="#e3647d" fill-opacity="1" d="M0,0L0,192L36.9,192L36.9,64L73.8,64L73.8,64L110.8,64L110.8,128L147.7,128L147.7,64L184.6,64L184.6,160L221.5,160L221.5,96L258.5,96L258.5,288L295.4,288L295.4,320L332.3,320L332.3,160L369.2,160L369.2,192L406.2,192L406.2,256L443.1,256L443.1,128L480,128L480,160L516.9,160L516.9,192L553.8,192L553.8,96L590.8,96L590.8,224L627.7,224L627.7,32L664.6,32L664.6,128L701.5,128L701.5,96L738.5,96L738.5,224L775.4,224L775.4,0L812.3,0L812.3,192L849.2,192L849.2,96L886.2,96L886.2,0L923.1,0L923.1,256L960,256L960,64L996.9,64L996.9,160L1033.8,160L1033.8,0L1070.8,0L1070.8,96L1107.7,96L1107.7,96L1144.6,96L1144.6,224L1181.5,224L1181.5,160L1218.5,160L1218.5,128L1255.4,128L1255.4,64L1292.3,64L1292.3,32L1329.2,32L1329.2,64L1366.2,64L1366.2,64L1403.1,64L1403.1,160L1440,160L1440,320L1403.1,320L1403.1,320L1366.2,320L1366.2,320L1329.2,320L1329.2,320L1292.3,320L1292.3,320L1255.4,320L1255.4,320L1218.5,320L1218.5,320L1181.5,320L1181.5,320L1144.6,320L1144.6,320L1107.7,320L1107.7,320L1070.8,320L1070.8,320L1033.8,320L1033.8,320L996.9,320L996.9,320L960,320L960,320L923.1,320L923.1,320L886.2,320L886.2,320L849.2,320L849.2,320L812.3,320L812.3,320L775.4,320L775.4,320L738.5,320L738.5,320L701.5,320L701.5,320L664.6,320L664.6,320L627.7,320L627.7,320L590.8,320L590.8,320L553.8,320L553.8,320L516.9,320L516.9,320L480,320L480,320L443.1,320L443.1,320L406.2,320L406.2,320L369.2,320L369.2,320L332.3,320L332.3,320L295.4,320L295.4,320L258.5,320L258.5,320L221.5,320L221.5,320L184.6,320L184.6,320L147.7,320L147.7,320L110.8,320L110.8,320L73.8,320L73.8,320L36.9,320L36.9,320L0,320L0,320Z"></path></svg>