<?xml version="1.0" standalone="no"?><svg xmlns="http://www.w3.org/2000/svg" viewBox="0 0 1440 290"><path fill="#42BDB3" fill-opacity="1" d="M0,160L34.3,144C68.6,128,137,96,206,101.3C274.3,107,343,149,411,170.7C480,192,549,192,617,181.3C685.7,171,754,149,823,160C891.4,171,960,213,1029,218.7C1097.1,224,1166,192,1234,165.3C1302.9,139,1371,117,1406,106.7L1440,96L1440,320L1405.7,320C1371.4,320,1303,320,1234,320C1165.7,320,1097,320,1029,320C960,320,891,320,823,320C754.3,320,686,320,617,320C548.6,320,480,320,411,320C342.9,320,274,320,206,320C137.1,320,69,320,34,320L0,320Z"></path></svg>